<svg aria-hidden="true" class="prism-Iconography prism-Iconography--general-search icon-size" focusable="false" height="24px" viewBox="0 0 21 21" width="24px" xmlns="http://www.w3.org/2000/svg" xmlns:xlink="http://www.w3.org/1999/xlink"><path fill="currentColor" d="M9.844 3.046A7.713 7.713 0 005.9 4.66a9.833 9.833 0 00-1.384 1.42c-1.17 1.573-1.702 3.589-1.455 5.508a7.649 7.649 0 009.12 6.553c1.101-.223 2.107-.681 3.163-1.441.043-.03.548.452 2.186 2.087C19.783 21.037 19.74 21 20.1 21c.473 0 .901-.427.9-.897-.001-.363.039-.317-2.213-2.573-1.635-1.638-2.117-2.143-2.087-2.186.545-.757.924-1.467 1.179-2.205 1.027-2.979.11-6.31-2.293-8.326a7.698 7.698 0 00-5.742-1.767m1.846 1.852a5.679 5.679 0 013.072 1.62 5.604 5.604 0 011.417 2.245c.37 1.063.404 2.427.086 3.517-.503 1.723-1.804 3.156-3.451 3.8-1.617.633-3.32.544-4.874-.253-1.064-.545-2.037-1.55-2.558-2.643a6.563 6.563 0 01-.491-1.515c-.095-.514-.091-1.555.007-2.069a5.858 5.858 0 011.623-3.079c.969-.97 2.148-1.525 3.599-1.697.275-.033 1.226.012 1.57.074"></path></svg>