<svg viewBox="0 0 461.54 461.54" xmlns="http://www.w3.org/2000/svg" xmlns:xlink="http://www.w3.org/1999/xlink"><linearGradient id="a" gradientUnits="userSpaceOnUse" x1="230.76" x2="230.76" y1="164.89" y2="185.62"><stop offset="0" stop-color="#8b3a0e"/><stop offset="1" stop-color="#472315"/></linearGradient><linearGradient id="b" gradientUnits="userSpaceOnUse" x1="139.9" x2="139.9" y1="79.68" y2="145.66"><stop offset="0" stop-color="#3c466e"/><stop offset="1" stop-color="#252949"/></linearGradient><linearGradient id="c" gradientTransform="matrix(-1 0 0 1 -3084.09 0)" x1="-3403.55" x2="-3403.55" xlink:href="#b"/><linearGradient id="d"><stop offset="0" stop-color="#feeb72"/><stop offset=".32" stop-color="#fde86f"/><stop offset=".52" stop-color="#fcdf68"/><stop offset=".68" stop-color="#fbd05c"/><stop offset=".84" stop-color="#f9bb4b"/><stop offset=".97" stop-color="#f6a134"/><stop offset="1" stop-color="#f69b30"/></linearGradient><linearGradient id="e" gradientUnits="userSpaceOnUse" x1="118.38" x2="30.77" xlink:href="#d" y1="346.01" y2="146.99"/><linearGradient id="f" x1="229.89" x2="461.54" xlink:href="#e" y1="272.81" y2="272.81"/><radialGradient id="g" cx="230.77" cy="230.77" gradientUnits="userSpaceOnUse" r="230.77" xlink:href="#d"/><radialGradient id="h" cx="239.27" cy="265.61" gradientUnits="userSpaceOnUse" r="219.89"><stop offset="0" stop-color="#fa6080"/><stop offset=".18" stop-color="#f65979"/><stop offset=".43" stop-color="#ed4866"/><stop offset=".73" stop-color="#df2c48"/><stop offset="1" stop-color="#cf0d26"/></radialGradient><path d="m461.54 230.77c0 47.22-14.18 91.12-38.56 127.71-1.79 2.74-3.68 5.48-5.66 8.12-41.97 57.55-109.89 94.94-186.55 94.94-101.04 0-186.91-64.95-218.16-155.4l-.04-.04c-8.13-23.62-12.57-48.98-12.57-75.33 0-42.78 11.63-82.86 31.92-117.2 40.17-67.96 114.19-113.57 198.85-113.57 89.15 0 166.49 50.54 204.91 124.56 16.52 31.78 25.86 67.92 25.86 106.21" fill="url(#g)"/><path d="m313.18 349.68c-9.92 16.38-20.96 30.35-32.45 42.29-12.7 13.2-26.03 23.88-39.14 32.54-51.76 34.16-100.91 37.03-100.91 37.03s-28.46-27.07-52.92-62.4c-13.65-19.62-26.03-41.79-31.65-63.25-2.78-10.68-4.85-21.14-6.02-31.2-6.91-57.28 12.75-102.21 70.11-106.56 62.17-4.71 77.12 61.81 77.12 61.81 54.99-57.86 168.38 3.41 115.86 89.73z" fill="url(#h)"/><path d="m280.73 391.96c-12.7 13.2-26.03 23.88-39.14 32.54-9.07-4.8-17.1-12.75-21.28-25.41-5.48-16.56 11.85-15.98 11.85-15.98l48.57 8.84z" fill="#b81219" opacity=".2"/><path d="m269.86 164.89h-78.19c-5.51 0-9.23 5.64-7.06 10.71.63 1.47 1.68 2.74 3.06 3.54 4.19 2.41 15.38 6.49 43.09 6.49s38.9-4.08 43.09-6.49c1.39-.8 2.43-2.07 3.06-3.54 2.17-5.07-1.54-10.71-7.06-10.71z" fill="url(#a)"/><path d="m112.41 112.67c0-18.21 12.29-32.99 27.49-32.99s27.49 14.78 27.49 32.99-12.29 32.99-27.49 32.99-27.49-14.78-27.49-32.99" fill="url(#b)"/><path d="m180.3 53.63c-25.4-1.33-51.08 3.25-74.1 14.56-4.49 2.07-8.57-3.95-5.04-7.35 20.85-21.27 52.95-30.36 82.15-24.91 10.98 2.74 8.17 18.68-3.02 17.7z" fill="#de8009"/><path d="m346.95 112.67c0 18.21-12.29 32.99-27.49 32.99s-27.49-14.78-27.49-32.99 12.3-32.99 27.49-32.99 27.49 14.78 27.49 32.99" fill="url(#c)"/><path d="m276.04 35.93c22.18-4.25 45.44.22 64.86 11.39 6.47 3.56 12.17 8.41 17.29 13.51a4.533 4.533 0 0 1 .01 6.41c-1.46 1.47-3.63 1.7-5.37.8-22.92-11.23-48.5-15.72-73.78-14.41-11.26.96-13.94-15.02-3.02-17.7z" fill="#de8009"/><path d="m196.46 343.26c-38.26 63.78-122.68 34.59-128.36 23.36-5.13-10.17-9.33-20.52-12-30.72-2.78-10.68-4.85-21.14-6.02-31.2l131.7 5.43s31.01 5.87 14.66 33.12z" fill="#b81219" opacity=".2"/><path d="m110.34 365.88c-48.66-5.75-67.78-21.73-97.72-59.75l-.04-.04c-8.14-23.61-12.58-48.97-12.58-75.32 0-42.78 11.63-82.86 31.92-117.2-1.79 35.24-2.38 73.93 1.66 94.09 3.23 15.8 4.67 37.84 45.92 45.47 41.25 7.68 65.94-7.63 74.87 0 8.93 7.68-26.39 27.25-14.45 28.5 11.9 1.26 41.66-3.41 47.85 22.98 6.15 26.35-20.38 68-77.43 61.27" fill="url(#e)"/><path d="m461.54 230.77c0 47.22-14.18 91.12-38.56 127.71l-5.66 8.12c-46.02 47.21-90.65 51.26-126.9 54.09-48.84 3.82-55.71-22.53-59.66-37.84-4-15.31 5.76-34.45 26.93-35.33 14.06-.58 22.53-8.48 11.04-14.86-11.49-6.37-14.45-19.97-6.78-20.42 7.63-.4 50.19 14.05 85.47 0s61.23-81.47 61.23-81.47c15.49-30.7 23.88-82.86 27.02-106.21 16.52 31.78 25.86 67.92 25.86 106.21z" fill="url(#f)"/></svg>