<svg aria-label="Good Morning America Instagram" aria-hidden="false" role="img" class="prism-Iconography prism-Iconography--social-instagram icon-instagram" focusable="false" height="1em" viewBox="0 0 32 32" width="1em" xmlns="http://www.w3.org/2000/svg" xmlns:xlink="http://www.w3.org/1999/xlink"><path fill="currentColor" d="M10.7 16c0-2.9 2.4-5.3 5.3-5.3s5.3 2.4 5.3 5.3-2.4 5.3-5.3 5.3-5.3-2.4-5.3-5.3zm-2.9 0c0 4.5 3.7 8.2 8.2 8.2s8.2-3.7 8.2-8.2-3.7-8.2-8.2-8.2-8.2 3.7-8.2 8.2zm14.8-8.5c0 1.1.9 1.9 1.9 1.9 1.1 0 1.9-.9 1.9-1.9s-.9-1.9-1.9-1.9c-1-.1-1.9.8-1.9 1.9zM9.5 29c-1.5-.1-2.4-.3-3-.5-.7-.3-1.3-.7-1.9-1.2-.5-.5-.9-1.1-1.2-1.9-.1-.5-.3-1.4-.4-2.9-.1-1.7-.1-2.2-.1-6.5s0-4.8.1-6.5c.1-1.5.3-2.4.5-3 .3-.7.7-1.3 1.2-1.9.5-.5 1.1-.9 1.9-1.2.5-.1 1.4-.3 2.9-.4 1.7-.1 2.2-.1 6.5-.1s4.8 0 6.5.1c1.5.1 2.4.3 3 .5.7.3 1.3.7 1.9 1.2.5.5.9 1.1 1.2 1.9.2.5.5 1.4.5 3 .1 1.7.1 2.2.1 6.5s0 4.8-.1 6.5c-.1 1.5-.3 2.4-.5 3-.3.7-.7 1.3-1.2 1.9-.5.5-1.1.9-1.9 1.2-.5.2-1.4.5-3 .5-1.7.1-2.2.1-6.5.1-4.3-.2-4.8-.2-6.5-.3zM9.4.1C7.7.1 6.5.4 5.5.8c-1.1.5-1.9 1-2.9 1.9-.8.8-1.4 1.8-1.8 2.8-.4 1-.7 2.2-.7 3.9C0 11.1 0 11.7 0 16s0 4.9.1 6.6c.1 1.7.3 2.9.7 3.9.5 1.1 1 1.9 1.9 2.9.9.9 1.8 1.5 2.9 1.9 1 .4 2.2.7 3.9.7H16c4.3 0 4.9 0 6.6-.1 1.7-.1 2.9-.3 3.9-.7 1.1-.4 1.9-.9 2.9-1.9.9-.9 1.5-1.8 1.9-2.9.4-1 .7-2.2.7-3.9V16c0-4.3 0-4.9-.1-6.6-.1-1.7-.3-2.9-.7-3.9-.5-1.1-1-1.9-1.9-2.9-.9-.9-1.8-1.5-2.9-1.9-1-.4-2.2-.7-3.9-.7H16c-4.3 0-4.9 0-6.6.1z"></path></svg>