<svg aria-label="Good Morning America Pinterest" aria-hidden="false" role="img" class="prism-Iconography prism-Iconography--social-pinterest icon-pinterest" focusable="false" height="1em" viewBox="0 0 32 32" width="1em" xmlns="http://www.w3.org/2000/svg" xmlns:xlink="http://www.w3.org/1999/xlink"><path fill="currentColor" d="M16.001 0C7.165 0 0 7.163 0 16.001c0 6.55 3.94 12.18 9.579 14.654-.045-1.116-.008-2.459.277-3.675.309-1.298 2.058-8.717 2.058-8.717s-.51-1.022-.51-2.533c0-2.371 1.375-4.141 3.086-4.141 1.454 0 2.158 1.093 2.158 2.403 0 1.462-.933 3.65-1.413 5.677-.401 1.699.85 3.082 2.525 3.082 3.031 0 5.073-3.893 5.073-8.507 0-3.505-2.361-6.13-6.657-6.13-4.853 0-7.876 3.618-7.876 7.66 0 1.396.41 2.378 1.054 3.139.297.352.337.491.23.894-.075.292-.252 1.003-.325 1.283-.107.405-.435.551-.8.401-2.237-.913-3.278-3.361-3.278-6.113 0-4.544 3.833-9.997 11.434-9.997 6.109 0 10.13 4.424 10.13 9.167 0 6.277-3.488 10.966-8.634 10.966-1.725 0-3.351-.933-3.908-1.993 0 0-.93 3.686-1.125 4.397-.339 1.233-1.003 2.467-1.611 3.426 1.439.425 2.96.657 4.535.657 8.836 0 15.999-7.163 15.999-15.999 0-8.838-7.163-16.001-15.999-16.001z"></path></svg>