<svg aria-label="Good Morning America TikTok" aria-hidden="false" role="img" class="prism-Iconography prism-Iconography--social-tiktok icon-tiktok" focusable="false" height="1em" viewBox="0 0 32 32" width="1em" xmlns="http://www.w3.org/2000/svg" xmlns:xlink="http://www.w3.org/1999/xlink"><path fill="currentColor" d="M22.43 6.844a6.333 6.333 0 01-1.57-4.178h-4.578v18.37a3.84 3.84 0 01-3.837 3.704 3.863 3.863 0 01-3.852-3.852c0-2.548 2.459-4.459 4.993-3.674v-4.681c-5.111-.681-9.585 3.289-9.585 8.356 0 4.933 4.089 8.444 8.43 8.444 4.652 0 8.43-3.778 8.43-8.444V11.57a10.888 10.888 0 006.37 2.044V9.036s-2.785.133-4.8-2.193z"></path></svg>